# xmcd
# Copyright (C) 1995-1998 Ti Kan
#
# Track frame offsets:
#       150
#       15650
#       38743
#       64935
#       87505
#       106017
#       129081
#       147502
#       169794
#       195668
#       217718
#       235155
#       267255
#
# Disc length: 4223 seconds
#
# Revision: 2
# Processed by: cddbd v1.5.2PL0 Copyright (c) Steve Scherf et al.
# Submitted via: CD-Transfer v1.0
#
DISCID=aa107d0d
DTITLE=Icf-Zürich - Here And Now
DYEAR=2006
DGENRE=
TTITLE0=So In Love
TTITLE1=So Beautiful To Me
TTITLE2=König Bisch Du
TTITLE3=You Won My Heart
TTITLE4=I'll Sing
TTITLE5=My All To You
TTITLE6=My Hero
TTITLE7=Saviour Of The Earth
TTITLE8=How Close Can I Get To You
TTITLE9=Deep Out Of My Heart
TTITLE10=Amazing You
TTITLE11=Close To You
TTITLE12=Data Track
EXTD=
EXTT0=
EXTT1=
EXTT2=
EXTT3=
EXTT4=
EXTT5=
EXTT6=
EXTT7=
EXTT8=
EXTT9=
EXTT10=
EXTT11=
EXTT12=
PLAYORDER=
